<svg xmlns="http://www.w3.org/2000/svg" viewBox="0 0 1200 630" width="1200" height="630" role="img" aria-label="个人博客">
  <defs>
    <linearGradient id="bg" x1="0" y1="0" x2="1" y2="1">
      <stop offset="0%" stop-color="#0b1020" />
      <stop offset="60%" stop-color="#151a35" />
      <stop offset="100%" stop-color="#1e1b4b" />
    </linearGradient>
    <radialGradient id="glowA" cx="18%" cy="20%" r="55%">
      <stop offset="0%" stop-color="#6366f1" stop-opacity="0.55" />
      <stop offset="100%" stop-color="#6366f1" stop-opacity="0" />
    </radialGradient>
    <radialGradient id="glowB" cx="85%" cy="15%" r="50%">
      <stop offset="0%" stop-color="#22d3ee" stop-opacity="0.45" />
      <stop offset="100%" stop-color="#22d3ee" stop-opacity="0" />
    </radialGradient>
    <linearGradient id="textGrad" x1="0" y1="0" x2="1" y2="0">
      <stop offset="0%" stop-color="#a5b4fc" />
      <stop offset="60%" stop-color="#67e8f9" />
      <stop offset="100%" stop-color="#f0abfc" />
    </linearGradient>
  </defs>

  <rect width="1200" height="630" fill="url(#bg)" />
  <rect width="1200" height="630" fill="url(#glowA)" />
  <rect width="1200" height="630" fill="url(#glowB)" />

  <g fill="none" stroke="#ffffff" stroke-opacity="0.08">
    <path d="M0 470h1200M0 520h1200" />
    <path d="M900 0v630M1000 0v630" />
  </g>

  <text x="88" y="252" font-family="-apple-system, 'PingFang SC', 'Microsoft YaHei', sans-serif" font-size="34" fill="#94a3b8" letter-spacing="6">
    PERSONAL BLOG
  </text>
  <text x="84" y="368" font-family="-apple-system, 'PingFang SC', 'Microsoft YaHei', sans-serif" font-size="96" font-weight="700" fill="url(#textGrad)">
    写代码，也写思考
  </text>
  <text x="88" y="452" font-family="-apple-system, 'PingFang SC', 'Microsoft YaHei', sans-serif" font-size="34" fill="#cbd5e1">
    前端工程 · 后端架构 · AI 工具链 · 读书笔记
  </text>

  <g font-family="-apple-system, 'PingFang SC', sans-serif" font-size="24" fill="#e2e8f0">
    <rect x="88" y="510" width="210" height="52" rx="26" fill="#ffffff" fill-opacity="0.08" />
    <text x="118" y="544">Markdown 写作</text>
    <rect x="318" y="510" width="250" height="52" rx="26" fill="#ffffff" fill-opacity="0.08" />
    <text x="348" y="544">公众号一键同步</text>
    <rect x="588" y="510" width="210" height="52" rx="26" fill="#ffffff" fill-opacity="0.08" />
    <text x="618" y="544">GitHub Pages</text>
  </g>
</svg>
